<?xml version="1.0" encoding="UTF-8"?>
<svg id="Layer_2" xmlns="http://www.w3.org/2000/svg" xmlns:xlink="http://www.w3.org/1999/xlink" viewBox="0 0 51.76 5.46">
  <defs>
    <style>
      .cls-1 {
        fill: url(#linear-gradient-2);
      }

      .cls-2 {
        fill: url(#linear-gradient-4);
      }

      .cls-3 {
        fill: url(#linear-gradient-3);
      }

      .cls-4 {
        fill: url(#linear-gradient-5);
      }

      .cls-5 {
        fill: url(#linear-gradient-7);
      }

      .cls-6 {
        fill: url(#linear-gradient-6);
      }

      .cls-7 {
        fill: url(#linear-gradient);
      }
    </style>
    <linearGradient id="linear-gradient" x1=".68" y1="2.08" x2="44.12" y2="13" gradientUnits="userSpaceOnUse">
      <stop offset="0" stop-color="#fff"/>
      <stop offset="1" stop-color="#a7a9ac"/>
    </linearGradient>
    <linearGradient id="linear-gradient-2" x1="1.14" y1=".24" x2="44.58" y2="11.15" xlink:href="#linear-gradient"/>
    <linearGradient id="linear-gradient-3" x1="1.61" y1="-1.61" x2="45.04" y2="9.3" xlink:href="#linear-gradient"/>
    <linearGradient id="linear-gradient-4" x1="2.23" y1="-4.1" x2="45.67" y2="6.81" xlink:href="#linear-gradient"/>
    <linearGradient id="linear-gradient-5" x1="2.62" y1="-5.64" x2="46.06" y2="5.27" xlink:href="#linear-gradient"/>
    <linearGradient id="linear-gradient-6" x1="3.09" y1="-7.53" x2="46.53" y2="3.39" xlink:href="#linear-gradient"/>
    <linearGradient id="linear-gradient-7" x1="3.87" y1="-10.62" x2="47.31" y2=".29" xlink:href="#linear-gradient"/>
  </defs>
  <g id="Layer_1-2" data-name="Layer_1">
    <g>
      <path class="cls-7" d="M3.72.32c1.44,0,2.45.23,3.04.49v1.2c-.7-.34-1.8-.61-3.05-.61-1.05,0-1.67.22-1.95.5-.23.23-.37.51-.37,1s.14.78.37,1c.28.28.91.5,1.95.5,1.26,0,2.36-.25,3.05-.57v1.15c-.59.27-1.61.49-3.04.49-1.71,0-2.64-.4-3.1-.85-.42-.42-.63-1-.63-1.72s.21-1.31.63-1.72c.46-.45,1.39-.85,3.1-.85Z"/>
      <path class="cls-1" d="M8.34,1.18c.46-.46,1.32-.86,3.34-.86s2.88.4,3.34.86c.45.45.64,1.02.64,1.71s-.19,1.26-.64,1.71c-.46.46-1.32.86-3.34.86s-2.88-.4-3.34-.86-.64-1.02-.64-1.71.19-1.26.64-1.71ZM13.92,1.87c-.28-.28-.87-.52-2.23-.52s-1.95.24-2.23.52c-.2.2-.36.51-.36,1.02s.16.81.36,1.02c.28.28.87.52,2.23.52s1.95-.24,2.23-.52c.21-.2.36-.51.36-1.02s-.16-.81-.36-1.02Z"/>
      <path class="cls-3" d="M23.33,3.21c-.27.27-.66.45-1.48.51l2.41,1.54v.02h-1.99l-2.3-1.54h-1.71v1.54h-1.36V.5h4.17c1.44,0,1.93.17,2.28.52.3.3.38.72.38,1.09s-.08.77-.4,1.1ZM21.06,1.6h-2.79v1.14h2.79c.63,0,1-.05,1.18-.23.09-.09.14-.23.14-.36,0-.16-.04-.27-.14-.38-.15-.15-.47-.18-1.17-.18Z"/>
      <path class="cls-2" d="M29.23,5.28h-1.67L24.25.5h1.65l2.52,3.77,2.53-3.77h1.58l-3.3,4.78Z"/>
      <path class="cls-4" d="M39.65,2.35v1.02h-4.98v.82h5.1v1.09h-6.44V.5h6.44v1.09h-5.1v.77h4.98Z"/>
      <path class="cls-6" d="M42.43,5.28h-1.81v-.02l2.98-2.35-2.97-2.39v-.02h1.98l2.01,1.69,2.06-1.69h1.81v.02l-2.94,2.32,3.01,2.42v.02h-1.98l-2.05-1.72-2.1,1.72Z"/>
      <path class="cls-5" d="M51.52,1.77c-.19.19-.55.33-1.2.33s-1.01-.15-1.2-.33c-.17-.17-.23-.42-.23-.71s.07-.55.23-.72c.19-.19.55-.34,1.2-.34s1.01.15,1.2.34c.17.17.23.43.23.71s-.07.55-.23.72ZM51.35.48c-.15-.15-.41-.26-1.03-.26s-.88.11-1.03.26c-.13.13-.18.33-.18.57,0,.27.06.45.19.58.15.15.41.26,1.02.26s.88-.11,1.03-.26c.13-.13.18-.31.18-.57,0-.25-.05-.44-.18-.57ZM50.74,1.24l.4.28h0s-.46,0-.46,0l-.38-.27h-.33v.27h-.34v-.98h.92c.3,0,.39.04.47.12.06.06.08.15.08.23s-.02.17-.08.23c-.05.05-.15.09-.28.11ZM50.49.82h-.52v.19h.52c.15,0,.23,0,.26-.03.02-.02.02-.03.02-.06,0-.03,0-.05-.02-.06-.03-.03-.11-.03-.26-.03Z"/>
    </g>
  </g>
</svg>